<svg width="741" height="198" viewBox="0 0 741 198" fill="none" xmlns="http://www.w3.org/2000/svg">
<path d="M99.8824 198C154.559 198 198.882 153.676 198.882 99C198.882 44.3238 154.559 0 99.8824 0C45.2062 0 0.882385 44.3238 0.882385 99C0.882385 153.676 45.2062 198 99.8824 198Z" fill="#E81620"/>
<mask id="mask0_6_137" style="mask-type:luminance" maskUnits="userSpaceOnUse" x="0" y="0" width="199" height="198">
<path d="M99.8824 198C154.559 198 198.882 153.676 198.882 99C198.882 44.3238 154.559 0 99.8824 0C45.2062 0 0.882385 44.3238 0.882385 99C0.882385 153.676 45.2062 198 99.8824 198Z" fill="white"/>
</mask>
<g mask="url(#mask0_6_137)">
<path d="M83.3394 27.3367C87.2994 31.2328 90.3013 35.7038 92.3452 40.4941C93.431 42.9851 94.2613 45.6038 94.8361 48.2863C96.5606 56.3341 95.7303 64.765 92.409 72.3018C91.8342 73.5792 91.1955 74.7928 90.4929 76.0063C88.96 78.6889 86.98 81.2438 84.7445 83.5431C82.509 85.8425 79.9542 87.8225 77.2716 89.4192C76.8884 89.6747 76.4413 89.9302 76.0581 90.1218C75.2277 90.5689 74.4613 90.9521 73.631 91.3354C69.7348 93.1237 65.6471 94.2096 61.4316 94.5928C56.769 95.0399 52.0426 94.7205 47.4439 93.507C47.3161 93.507 47.1884 93.4431 47.0607 93.3792C44.7613 92.7405 42.4619 91.9102 40.2903 90.8883C36.0749 88.9083 32.1787 86.2257 28.6658 82.7767C27.0052 81.1799 25.5361 79.4554 24.2587 77.6031C24.5142 77.6031 24.7697 77.6031 25.0252 77.5392C29.9432 76.9644 34.7336 75.9425 39.2684 74.4096C41.2484 73.707 43.2284 72.9405 45.0807 72.1102C32.8174 63.9347 20.6181 55.6954 8.35486 47.5199C8.54647 47.1367 8.73808 46.7534 8.9297 46.4341C9.37679 45.6038 9.88776 44.7734 10.3349 43.9431C10.5265 43.6238 10.7181 43.3044 10.9097 42.9851C10.9097 42.9212 10.9736 42.8573 11.0374 42.7934L49.6155 69.8747C49.9987 69.6831 50.3819 69.4276 50.7652 69.1721C54.8529 66.745 58.5574 63.8709 61.9426 60.4218C65.3277 56.9728 68.4574 52.8851 70.8845 48.6057C61.6871 35.8315 52.4258 22.9934 43.2284 10.2193L43.3561 10.1554C43.6755 9.96377 43.9949 9.77216 44.3142 9.51668C45.1445 9.00571 45.9748 8.55861 46.8052 8.04765C47.1884 7.85603 47.5716 7.60055 47.9548 7.40894C56.3219 19.6083 64.7529 31.8715 73.12 44.0709C73.12 43.9431 73.2477 43.8792 73.2477 43.7515C74.1419 41.7076 74.9723 39.6638 75.6748 37.4922C77.1439 32.9573 78.1019 28.167 78.6129 23.2489C80.2735 24.4625 81.8703 25.8038 83.4032 27.3367H83.3394Z" fill="white"/>
<path d="M116.424 27.3367C112.464 31.2328 109.462 35.7038 107.419 40.4941C106.333 42.9851 105.502 45.6038 104.928 48.2863C103.203 56.3341 104.033 64.765 107.355 72.3018C107.93 73.5792 108.568 74.7928 109.271 76.0063C110.804 78.6889 112.784 81.2438 115.019 83.5431C117.255 85.8425 119.81 87.8225 122.492 89.4192C122.875 89.6747 123.322 89.9302 123.706 90.1218C124.536 90.5689 125.302 90.9521 126.133 91.3354C130.029 93.1237 134.117 94.2096 138.332 94.5928C142.995 95.0399 147.721 94.7205 152.32 93.507C152.448 93.507 152.575 93.4431 152.703 93.3792C155.002 92.7405 157.302 91.9102 159.473 90.8883C163.689 88.9083 167.585 86.2257 171.098 82.7767C172.759 81.1799 174.228 79.4554 175.505 77.6031C175.25 77.6031 174.994 77.6031 174.739 77.5392C169.821 76.9644 165.03 75.9425 160.495 74.4096C158.515 73.707 156.535 72.9405 154.683 72.1102C166.946 63.9347 179.146 55.6954 191.409 47.5199C191.217 47.1367 191.026 46.7534 190.834 46.4341C190.387 45.6038 189.876 44.7734 189.429 43.9431C189.237 43.6238 189.046 43.3044 188.854 42.9851C188.854 42.9212 188.79 42.8573 188.726 42.7934L150.148 69.8747C149.765 69.6831 149.382 69.4276 148.999 69.1721C144.911 66.745 141.206 63.8709 137.821 60.4218C134.436 56.9728 131.306 52.8851 128.879 48.6057C138.077 35.8315 147.338 22.9934 156.535 10.2193L156.408 10.1554C156.088 9.96377 155.769 9.77216 155.45 9.51668C154.619 9.00571 153.789 8.55861 152.959 8.04765C152.575 7.85603 152.192 7.60055 151.809 7.40894C143.442 19.6083 135.011 31.8715 126.644 44.0709C126.644 43.9431 126.516 43.8792 126.516 43.7515C125.622 41.7076 124.791 39.6638 124.089 37.4922C122.62 32.9573 121.662 28.167 121.151 23.2489C119.49 24.4625 117.893 25.8038 116.361 27.3367H116.424Z" fill="white"/>
<path d="M83.3394 170.663C87.2994 166.767 90.3013 162.296 92.3452 157.506C93.431 155.015 94.2613 152.396 94.8361 149.713C96.5606 141.666 95.7303 133.235 92.409 125.698C91.8342 124.42 91.1955 123.207 90.4929 121.993C88.96 119.311 86.98 116.756 84.7445 114.457C82.509 112.157 79.9542 110.177 77.2716 108.58C76.8884 108.325 76.4413 108.069 76.0581 107.878C75.2277 107.431 74.4613 107.048 73.631 106.664C69.7348 104.876 65.6471 103.79 61.4316 103.407C56.769 102.96 52.0426 103.279 47.4439 104.493C47.3161 104.493 47.1884 104.557 47.0607 104.62C44.7613 105.259 42.4619 106.089 40.2903 107.111C36.0749 109.091 32.1787 111.774 28.6658 115.223C27.0052 116.82 25.5361 118.544 24.2587 120.397C24.5142 120.397 24.7697 120.397 25.0252 120.46C29.9432 121.035 34.7336 122.057 39.2684 123.59C41.2484 124.293 43.2284 125.059 45.0807 125.889C32.8174 134.065 20.6181 142.304 8.35486 150.48C8.54647 150.863 8.73808 151.246 8.9297 151.566C9.37679 152.396 9.88776 153.226 10.3349 154.057C10.5265 154.376 10.7181 154.695 10.9097 155.015C10.9097 155.078 10.9736 155.142 11.0374 155.206L49.6155 128.125C49.9987 128.317 50.3819 128.572 50.7652 128.828C54.8529 131.255 58.5574 134.129 61.9426 137.578C65.3277 141.027 68.4574 145.115 70.8845 149.394C61.6871 162.168 52.4258 175.006 43.2284 187.78L43.3561 187.844C43.6755 188.036 43.9949 188.228 44.3142 188.483C45.1445 188.994 45.9748 189.441 46.8052 189.952C47.1884 190.144 47.5716 190.399 47.9548 190.591C56.3219 178.391 64.7529 166.128 73.12 153.929C73.12 154.057 73.2477 154.12 73.2477 154.248C74.1419 156.292 74.9723 158.336 75.6748 160.508C77.1439 165.042 78.1019 169.833 78.6129 174.751C80.2735 173.537 81.8703 172.196 83.4032 170.663H83.3394Z" fill="white"/>
<path d="M116.424 170.663C112.464 166.767 109.462 162.296 107.419 157.506C106.333 155.015 105.502 152.396 104.928 149.713C103.203 141.666 104.033 133.235 107.355 125.698C107.93 124.42 108.568 123.207 109.271 121.993C110.804 119.311 112.784 116.756 115.019 114.457C117.255 112.157 119.81 110.177 122.492 108.58C122.875 108.325 123.322 108.069 123.706 107.878C124.536 107.431 125.302 107.048 126.133 106.664C130.029 104.876 134.117 103.79 138.332 103.407C142.995 102.96 147.721 103.279 152.32 104.493C152.448 104.493 152.575 104.557 152.703 104.62C155.002 105.259 157.302 106.089 159.473 107.111C163.689 109.091 167.585 111.774 171.098 115.223C172.759 116.82 174.228 118.544 175.505 120.397C175.25 120.397 174.994 120.397 174.739 120.46C169.821 121.035 165.03 122.057 160.495 123.59C158.515 124.293 156.535 125.059 154.683 125.889C166.946 134.065 179.146 142.304 191.409 150.48C191.217 150.863 191.026 151.246 190.834 151.566C190.387 152.396 189.876 153.226 189.429 154.057C189.237 154.376 189.046 154.695 188.854 155.015C188.854 155.078 188.79 155.142 188.726 155.206L150.148 128.125C149.765 128.317 149.382 128.572 148.999 128.828C144.911 131.255 141.206 134.129 137.821 137.578C134.436 141.027 131.306 145.115 128.879 149.394C138.077 162.168 147.338 175.006 156.535 187.78L156.408 187.844C156.088 188.036 155.769 188.228 155.45 188.483C154.619 188.994 153.789 189.441 152.959 189.952C152.575 190.144 152.192 190.399 151.809 190.591C143.442 178.391 135.011 166.128 126.644 153.929C126.644 154.057 126.516 154.12 126.516 154.248C125.622 156.292 124.791 158.336 124.089 160.508C122.62 165.042 121.662 169.833 121.151 174.751C119.49 173.537 117.893 172.196 116.361 170.663H116.424Z" fill="white"/>
</g>
<path d="M286.397 164.968C276.828 164.968 268.292 163.174 260.788 159.585C253.394 155.888 247.631 150.832 243.498 144.416C239.366 137.891 237.3 130.497 237.3 122.232V90.0988C237.3 81.8344 239.312 74.5487 243.335 68.2416C247.467 61.8258 253.176 56.8236 260.462 53.2351C267.857 49.6466 276.23 47.8524 285.582 47.8524C294.934 47.8524 303.252 49.3204 310.538 52.2564C317.933 55.0838 323.642 59.0529 327.665 64.1637C331.797 69.2746 333.863 75.0924 333.863 81.6169C333.863 85.4229 332.613 88.4133 330.112 90.5882C327.611 92.6543 324.24 93.6873 319.999 93.6873C317.933 93.6873 315.975 93.4698 314.127 93.0349C314.453 91.4037 314.616 89.0114 314.616 85.8579C314.616 79.6595 311.897 74.603 306.46 70.6883C301.132 66.7736 294.172 64.8162 285.582 64.8162C277.1 64.8162 270.195 67.1542 264.866 71.8301C259.538 76.506 256.874 82.5956 256.874 90.0988V122.232C256.874 127.234 258.124 131.693 260.625 135.608C263.126 139.522 266.606 142.567 271.065 144.742C275.523 146.917 280.634 148.004 286.397 148.004C294.77 148.004 301.621 145.992 306.95 141.969C312.387 137.837 315.105 132.617 315.105 126.31V119.786H298.794C294.988 119.786 291.834 118.372 289.333 115.545C286.941 112.609 285.745 108.803 285.745 104.127H325.381C328.209 104.127 330.438 104.942 332.069 106.573C333.809 108.204 334.679 110.379 334.679 113.098V126.636C334.679 134.031 332.613 140.664 328.481 146.536C324.457 152.3 318.748 156.812 311.354 160.075C304.068 163.337 295.749 164.968 286.397 164.968ZM371.952 122.395L331.499 49.9729C332.478 49.4291 333.946 48.9398 335.904 48.5048C337.861 48.0699 339.655 47.8524 341.286 47.8524C344.875 47.8524 347.865 48.6136 350.258 50.136C352.759 51.5496 354.879 53.8332 356.619 56.9867L381.412 103.311L377.171 111.793L378.802 112.609L407.021 56.9867C410.066 50.8972 415.177 47.8524 422.354 47.8524C423.985 47.8524 425.779 48.0699 427.737 48.5048C429.694 48.9398 431.162 49.4291 432.141 49.9729L391.688 122.395V149.962C391.688 154.746 390.003 158.443 386.632 161.053C383.261 163.663 378.367 164.968 371.952 164.968V122.395ZM477.824 164.968C468.907 164.968 460.751 163.174 453.357 159.585C446.071 155.997 440.308 151.158 436.067 145.068C431.826 138.979 429.705 132.291 429.705 125.005V87.6521C429.705 80.3664 431.772 73.6787 435.904 67.5891C440.145 61.4996 445.908 56.7149 453.194 53.2351C460.588 49.6466 468.798 47.8524 477.824 47.8524C486.85 47.8524 495.005 49.6466 502.291 53.2351C509.685 56.7149 515.449 61.4996 519.581 67.5891C523.822 73.6787 525.942 80.3664 525.942 87.6521V125.005C525.942 132.291 523.822 138.979 519.581 145.068C515.34 151.158 509.522 155.997 502.128 159.585C494.842 163.174 486.741 164.968 477.824 164.968ZM477.824 147.841C486.523 147.841 493.428 145.721 498.539 141.48C503.759 137.239 506.369 131.638 506.369 124.679V87.9783C506.369 81.0188 503.759 75.473 498.539 71.3408C493.428 67.0998 486.523 64.9793 477.824 64.9793C469.125 64.9793 462.165 67.0998 456.945 71.3408C451.834 75.473 449.279 81.0188 449.279 87.9783V124.679C449.279 131.638 451.834 137.239 456.945 141.48C462.165 145.721 469.125 147.841 477.824 147.841ZM538.992 163.5C536.273 163.5 534.098 162.739 532.467 161.216C530.836 159.694 530.02 157.628 530.02 155.018C530.02 152.626 530.673 150.723 531.978 149.309L605.868 60.7384L604.563 59.5966L598.854 66.1211H548.289C543.613 66.1211 540.025 64.7075 537.524 61.8802C535.022 58.9441 533.772 54.7575 533.772 49.3204H620.222C623.05 49.3204 625.224 50.0816 626.747 51.604C628.378 53.0176 629.193 55.0838 629.193 57.8023C629.193 59.9772 628.541 61.8258 627.236 63.3482L553.835 152.082L555.14 153.061L560.686 146.699H615.329C620.005 146.699 623.539 148.167 625.931 151.103C628.432 153.931 629.683 158.063 629.683 163.5H538.992ZM648.181 164.968C643.94 164.424 640.623 162.902 638.231 160.401C635.839 157.791 634.642 154.637 634.642 150.94C634.642 148.004 635.349 145.068 636.763 142.132L674.605 54.2138C676.454 49.9729 679.662 47.8524 684.229 47.8524C688.688 47.8524 691.895 49.9729 693.853 54.2138L731.695 142.132C733 145.177 733.653 148.059 733.653 150.777C733.653 154.583 732.456 157.791 730.064 160.401C727.672 162.902 724.355 164.424 720.114 164.968L706.249 132.998H662.046L648.181 164.968ZM700.214 116.034L681.293 68.5678L679.499 69.2203L683.25 78.5178L668.081 116.034H700.214Z" fill="black"/>
</svg>
