<svg width="32" height="32" viewBox="0 0 32 32" fill="none" xmlns="http://www.w3.org/2000/svg">
<g clip-path="url(#clip0_62_6)">
<path d="M16 32C24.8366 32 32 24.8366 32 16C32 7.16344 24.8366 0 16 0C7.16344 0 0 7.16344 0 16C0 24.8366 7.16344 32 16 32Z" fill="#0066FF"/>
<path d="M9.87035 10.0071H7.72171C6.30765 11.7701 5.46289 13.9921 5.46289 16.3979C5.46289 18.8036 6.30765 21.0441 7.72171 22.7887H9.87035C9.87035 22.7887 7.46461 20.1442 7.46461 16.3979C7.46461 12.6515 9.87035 10.0071 9.87035 10.0071Z" fill="white"/>
<path d="M21.5869 22.8075H23.7355C25.1496 21.0445 25.9943 18.8224 25.9943 16.4167C25.9943 14.0109 25.1496 11.7705 23.7355 10.0259H21.5869C21.5869 10.0259 23.9926 12.6703 23.9926 16.4167C23.9926 20.163 21.5869 22.8075 21.5869 22.8075Z" fill="white"/>
<path d="M14.6451 10.0254V11.8802H15.6185V10.0254H16.7938V11.8619C16.7938 11.8619 16.8856 11.8619 16.9591 11.8802C17.3814 11.917 17.8038 11.9904 18.2078 12.1373C18.6302 12.2843 19.0342 12.4863 19.3281 12.8536C19.5484 13.129 19.6586 13.4412 19.7137 13.7901C19.7688 14.1023 19.7505 14.4329 19.677 14.7267C19.5852 15.0756 19.4199 15.3878 19.1261 15.6266C19.0159 15.7 18.9241 15.8102 18.7955 15.847C18.7771 15.847 18.7588 15.8837 18.7404 15.9204C18.8506 15.9571 18.9424 16.0122 19.0526 16.0306C19.3464 16.1041 19.5852 16.2693 19.8239 16.453C20.081 16.655 20.2279 16.9121 20.3197 17.2059C20.4116 17.4447 20.4483 17.7018 20.4483 17.9405C20.4483 18.418 20.3932 18.8954 20.1912 19.3362C20.0259 19.6667 19.8239 19.9422 19.5301 20.1626C19.2546 20.3646 18.9424 20.5115 18.6119 20.6033C18.2813 20.7135 17.9507 20.7686 17.6202 20.8053C17.1794 20.8604 16.8489 20.8788 16.8489 20.8788V22.807C16.8489 22.807 16.0592 22.807 15.6552 22.807C15.6552 22.5867 15.6552 20.8788 15.6552 20.8788H14.6819V22.807H13.5065V20.8788H11.1743L11.2845 19.4647C11.2845 19.4647 11.8905 19.4831 12.1476 19.4647C12.4781 19.4464 12.6067 19.226 12.6067 18.9689C12.6067 18.3629 12.6067 17.7385 12.6067 17.1325C12.6067 16.4162 12.6067 15.7 12.6067 14.9655C12.6067 14.5614 12.6067 14.1574 12.6067 13.7534C12.6067 13.533 12.5149 13.3494 12.3312 13.2392C12.2394 13.1841 12.1476 13.1474 12.0374 13.129C11.7436 13.1107 11.0457 13.1107 11.0457 13.1107V11.8619H13.4515V10.0071H14.6451V10.0254ZM15.3797 16.8203C15.1777 16.8203 14.9573 16.8203 14.7553 16.8203C14.7186 16.8203 14.6819 16.8019 14.6819 16.8754C14.6819 17.0774 14.6819 17.2794 14.6819 17.463C14.6819 17.7936 14.6819 18.1058 14.6819 18.4363C14.6819 18.7302 14.6819 19.0424 14.6819 19.3362C14.6819 19.4464 14.7002 19.4647 14.8288 19.4831C15.3246 19.4831 15.8388 19.4831 16.3347 19.428C16.6836 19.3913 17.0325 19.3178 17.3631 19.1525C17.4916 19.0974 17.6385 19.0056 17.7304 18.9138C17.9875 18.6751 18.0977 18.3445 18.0609 17.9956C18.0242 17.665 17.8589 17.4079 17.5834 17.2243C17.2345 16.9855 16.8489 16.8937 16.4265 16.857C16.0776 16.8203 15.3797 16.8019 15.3797 16.8203ZM14.6635 15.0022C14.6635 15.1675 14.6635 15.3511 14.6635 15.5164C14.6635 15.6082 14.7002 15.6449 14.7737 15.6449C15.1777 15.6449 15.5634 15.6449 15.9674 15.6082C16.3347 15.5715 16.6836 15.498 16.9958 15.296C17.2529 15.1491 17.3998 14.9287 17.4733 14.6716C17.4916 14.5982 17.4916 14.5064 17.4916 14.4145C17.4916 14.1758 17.4365 13.9554 17.2896 13.7901C17.1427 13.6065 16.9407 13.4779 16.702 13.3861C16.3163 13.2392 15.9123 13.2025 15.5083 13.2025C15.2695 13.2025 15.0492 13.2025 14.8104 13.2025C14.7002 13.2025 14.6635 13.2392 14.6635 13.3494C14.6635 13.6249 14.6635 13.882 14.6635 14.1574C14.6635 14.4329 14.6635 14.7267 14.6635 15.0022Z" fill="white"/>
</g>
<defs>
<clipPath id="clip0_62_6">
<rect width="32" height="32" rx="16" fill="white"/>
</clipPath>
</defs>
</svg>
