<?xml version="1.0" encoding="UTF-8"?>
<svg id="Layer_2" data-name="Layer 2" xmlns="http://www.w3.org/2000/svg" xmlns:xlink="http://www.w3.org/1999/xlink" viewBox="0 0 320 360">
  <defs>
    <style>
      .cls-1 {
        fill: url(#linear-gradient-2);
      }

      .cls-2 {
        fill: url(#linear-gradient);
      }

      .cls-3 {
        fill: #30ffc7;
        filter: url(#outer-glow-1);
      }
    </style>
    <filter id="outer-glow-1" x="0" y="0" width="320" height="360" filterUnits="userSpaceOnUse">
      <feOffset dx="0" dy="0"/>
      <feGaussianBlur result="blur" stdDeviation="5.76"/>
      <feFlood flood-color="#9fffef" flood-opacity="1"/>
      <feComposite in2="blur" operator="in"/>
      <feComposite in="SourceGraphic"/>
    </filter>
    <linearGradient id="linear-gradient" x1="82.12" y1="257.69" x2="327.67" y2="77.94" gradientUnits="userSpaceOnUse">
      <stop offset=".07" stop-color="#1046e0"/>
      <stop offset=".48" stop-color="#2064ff"/>
      <stop offset=".67" stop-color="#27afe3"/>
      <stop offset=".87" stop-color="#30ffc7"/>
    </linearGradient>
    <linearGradient id="linear-gradient-2" x1="159.91" y1="-402.47" x2="159.91" y2="-581.47" gradientTransform="translate(0 -295.44) scale(1 -1)" gradientUnits="userSpaceOnUse">
      <stop offset="0" stop-color="#fff"/>
      <stop offset=".46" stop-color="#fff"/>
      <stop offset="1" stop-color="#fff"/>
    </linearGradient>
  </defs>
  <g id="Layer_1-2" data-name="Layer 1">
    <g>
      <path class="cls-3" d="M264.39,103.21c-1.16-1.25-1.38-3.1-.53-4.58l13.43-23.26c.9-1.57,2.91-2.1,4.47-1.2l2.9,1.67c2.85,1.64,6.59.88,8.32-1.91s.82-6.67-2.1-8.36l-5.95-3.44-69.15-39.93-5.73-3.31c-2.85-1.64-6.59-.88-8.32,1.91s-.82,6.67,2.1,8.36l3.12,1.8c1.57.9,2.1,2.91,1.2,4.47l-13.51,23.39c-.85,1.47-2.56,2.2-4.22,1.83-60.09-13.28-122.35,13.84-153.45,67.7-39,67.56-15.98,154.19,51.27,193.51s150.79,18.23,191.74-46.83c34.5-54.81,27.52-125.1-15.58-171.85ZM95.94,312.47c-60.65-34.3-83.53-111.18-51.38-173,28.47-54.75,91.06-81.73,149.93-65.43,2.64.73,5.45-.4,6.82-2.78l17.02-29.48c1.01-1.76,3.26-2.36,5.02-1.34l42.01,24.25c1.76,1.01,2.36,3.26,1.34,5.02l-16.73,28.97c-1.42,2.46-1.11,5.56.78,7.69h0c42.51,41.48,51.43,106.43,21.69,157.94-35.63,61.72-114.59,83.16-176.5,48.15Z"/>
      <path class="cls-2" d="M237,80.02c2.26,6.25-.05,12.81-5.15,14.65s-11.07-1.72-13.33-7.96c-2.26-6.25.05-12.81,5.15-14.65s11.07,1.72,13.33,7.96ZM276.04,199.45c0,64.13-52,116.12-116.13,116.12-1.56,0-3.1-.03-4.64-.1-61.98-2.43-111.49-53.45-111.49-116.02,0-1.44.03-2.87.08-4.29.3-8.1,2.66-16.01,7.03-22.84,8.16-12.76,19.28-23.44,32.4-31.08,2.36-1.37,3.82-3.87,3.82-6.6v-7.4c0-8.25,3.16-16.01,8.9-21.86,5.71-5.82,13.63-9.16,21.73-9.16h84.29c8.1,0,16.02,3.34,21.73,9.16,5.74,5.85,8.9,13.61,8.9,21.86v40.44h0c0,1.7,1.7,2.89,3.3,2.3,7.64-2.84,13.8-8.71,17.02-16.15.03-.08.07-.16.11-.25,1.17-2.57,3.77-4.37,6.79-4.37,2.74,0,5.13,1.47,6.42,3.67.26.57.51,1.14.74,1.72,5.79,13.8,8.99,28.95,8.99,44.85ZM74.34,185.13c-3.78-1.37-8.21,1.26-9.89,5.89-1.68,4.63.02,9.49,3.8,10.86,3.78,1.37,8.21-1.26,9.89-5.89,1.68-4.63-.02-9.49-3.8-10.86Z"/>
      <path class="cls-1" d="M221.88,167.68v-40.44c0-5.36-2.09-10.5-5.81-14.3-3.72-3.79-8.76-5.92-14.03-5.92h-84.29c-5.26,0-10.31,2.13-14.02,5.92s-5.81,8.93-5.81,14.3v117.33c0,3.03.67,6.02,1.96,8.75,1.29,2.73,3.16,5.13,5.48,7.02l30.69,25.12c.36.3.81.49,1.27.55.47.06.94-.02,1.36-.23.42-.21.78-.53,1.03-.94.25-.4.38-.87.38-1.35v-82.96c0-.67.26-1.31.73-1.79.46-.47,1.1-.74,1.75-.74h22.31c3.95,0,7.73,1.6,10.52,4.44,2.79,2.84,4.36,6.7,4.36,10.72v70.32c0,.48.13.94.38,1.35.25.4.6.73,1.02.93.42.21.89.29,1.35.23.46-.05.9-.24,1.27-.54l30.69-25.12c2.32-1.89,4.19-4.29,5.48-7.02,1.29-2.73,1.96-5.72,1.96-8.75v-36.46c0-5.36-2.09-10.5-5.81-14.3-3.72-3.79-8.76-5.92-14.02-5.92,5.25-.01,10.29-2.15,14-5.94,3.71-3.79,5.8-8.93,5.8-14.28ZM164.85,177.79h-22.31c-.66,0-1.29-.27-1.75-.74-.46-.47-.73-1.12-.73-1.79v-45.49c0-.67.26-1.31.73-1.79.47-.47,1.1-.74,1.75-.74h34.71c.66,0,1.29.27,1.75.74.47.47.73,1.12.73,1.79v32.85c0,4.02-1.57,7.88-4.36,10.72-2.79,2.84-6.57,4.44-10.52,4.44Z"/>
    </g>
  </g>
</svg>